<?xml version="1.0" encoding="UTF-8" standalone="no"?>
<!-- Created with Inkscape (http://www.inkscape.org/) -->

<svg
   version="1.1"
   id="svg2"
   width="220.00002"
   height="70"
   viewBox="0 0 220.00002 70.000002"
   sodipodi:docname="logo-juantor.svg"
   inkscape:version="1.2.1 (9c6d41e410, 2022-07-14)"
   inkscape:export-filename="logo-juantor-main.svg"
   inkscape:export-xdpi="101.33334"
   inkscape:export-ydpi="101.33334"
   xmlns:inkscape="http://www.inkscape.org/namespaces/inkscape"
   xmlns:sodipodi="http://sodipodi.sourceforge.net/DTD/sodipodi-0.dtd"
   xmlns="http://www.w3.org/2000/svg"
   xmlns:svg="http://www.w3.org/2000/svg">
  <defs
     id="defs6" />
  <sodipodi:namedview
     id="namedview4"
     pagecolor="#ffffff"
     bordercolor="#666666"
     borderopacity="1.0"
     inkscape:showpageshadow="2"
     inkscape:pageopacity="0.0"
     inkscape:pagecheckerboard="0"
     inkscape:deskcolor="#d1d1d1"
     showgrid="false"
     inkscape:zoom="4"
     inkscape:cx="57.75"
     inkscape:cy="40.125"
     inkscape:window-width="1489"
     inkscape:window-height="750"
     inkscape:window-x="733"
     inkscape:window-y="277"
     inkscape:window-maximized="0"
     inkscape:current-layer="g3266" />
  <g
     id="g3266"
     inkscape:export-filename="../../oxybuild-react/public/images/logo/dark.png"
     inkscape:export-xdpi="27.986971"
     inkscape:export-ydpi="27.986971"
     transform="matrix(0.25913862,0,0,-0.25913862,-137.5234,73.446805)"
     inkscape:label="logotipo">
    <path
       d="M 673.00148,93.008358 V 151.89025 L 650.37401,174.51772 627.7458,151.89025 V 81.694268 L 559.86195,64.723119 V 50.395943 h 181.02339 v 59.583547 z"
       style="font-size:144px;line-height:0;font-family:'Phetsarath OT';-inkscape-font-specification:'Phetsarath OT';text-align:center;text-anchor:middle;fill:#ff5e13;fill-opacity:1;fill-rule:nonzero;stroke:none;stroke-width:3.29974"
       id="path32-8"
       inkscape:label="casa" />
    <path
       d="M 648.61285,282.69727 531.42886,165.5126 c -1.56888,-1.56819 -0.45798,-4.25087 1.76027,-4.25087 h 26.67263 V 64.733764 l 45.25637,33.931314 v 62.596652 l 45.25567,45.25568 45.25567,-45.25568 v -39.96844 l 45.25567,-11.37233 v 51.34077 h 26.67334 c 2.21824,0 3.32917,2.68268 1.76099,4.25087 L 652.1348,282.69727 c -0.9726,0.97258 -2.54939,0.97258 -3.52195,0"
       style="font-size:144px;line-height:0;font-family:'Phetsarath OT';-inkscape-font-specification:'Phetsarath OT';text-align:center;text-anchor:middle;fill:#0a369d;fill-opacity:1;fill-rule:nonzero;stroke:none;stroke-width:3.29974"
       id="path200-8"
       sodipodi:nodetypes="ccscccccccccsssc"
       inkscape:label="techo" />
    <path
       style="font-size:144px;line-height:0;font-family:'Phetsarath OT';-inkscape-font-specification:'Phetsarath OT';text-align:center;text-anchor:middle;fill:#ffffff;fill-opacity:1;fill-rule:evenodd;stroke:#000000;stroke-width:0.101279;stroke-linejoin:bevel;stroke-dasharray:none;stroke-opacity:0.990461;paint-order:markers stroke fill"
       d="m 565.07811,67.59419 c 0.27078,0.417773 9.3954,7.368025 20.27686,15.445008 l 19.78449,14.6854 0.0388,31.404832 0.0387,31.40487 22.54286,22.52615 22.54286,22.52617 22.52617,-22.54286 22.52618,-22.54285 V 140.62785 120.7548 l 21.52171,-5.37238 21.52172,-5.37236 -31.39639,-7.88595 c -17.26803,-4.337292 -31.96609,-7.899062 -32.66239,-7.915102 -0.98413,-0.0227 -1.26598,6.457332 -1.26598,29.105002 v 29.13416 l -11.41004,11.37765 -11.41005,11.37768 -11.37767,-11.41005 -11.37767,-11.41004 V 117.3312 82.278958 L 596.62009,74.556773 C 563.49505,66.272704 564.34303,66.459892 565.07828,67.59419 Z"
       id="path7654"
       inkscape:label="relleno" />
    <g
       id="g1271"
       transform="matrix(0.97478439,0,0,0.97478439,139.34028,-52.533247)"
       inkscape:label="logotipo">
      <g
         aria-label="Juantor"
         transform="matrix(1,0,0,-1,82.578372,-34.990836)"
         id="text367"
         style="font-size:186.062px;-inkscape-font-specification:sans-serif;text-align:center;letter-spacing:-11.1637px;text-anchor:middle;fill:#f2f2f2;fill-rule:evenodd;stroke:#000000;stroke-width:9.89005;stroke-linejoin:bevel;paint-order:markers stroke fill">
        <path
           d="m 557.41128,-231.35431 15.89886,-2.18042 q 0.63595,15.2629 5.72358,20.89564 5.08763,5.63273 14.08184,5.63273 6.6321,0 11.44718,-2.99807 4.81508,-3.08892 6.63209,-8.2674 1.81701,-5.26933 1.81701,-16.71651 v -91.75909 h 17.62501 v 90.75974 q 0,16.7165 -4.08827,25.89241 -3.99743,9.17591 -12.80993,13.99099 -8.72166,4.81508 -20.53224,4.81508 -17.53416,0 -26.89177,-10.08441 -9.26676,-10.08442 -8.90336,-29.98069 z"
           style="font-family:'Phetsarath OT';-inkscape-font-specification:'Phetsarath OT';stroke:none"
           id="path3291" />
        <path
           d="m 709.41523,-193.56047 v -14.17269 q -11.26547,16.3531 -30.61665,16.3531 -8.53995,0 -15.9897,-3.27062 -7.3589,-3.27062 -10.99292,-8.17655 -3.54317,-4.99678 -4.99678,-12.17398 -0.99936,-4.81508 -0.99936,-15.2629 v -59.77968 h 16.3531 v 53.51099 q 0,12.80994 0.99936,17.26161 1.54446,6.4504 6.54124,10.17527 4.99679,3.63402 12.35568,3.63402 7.3589,0 13.80929,-3.72487 6.45039,-3.81573 9.08506,-10.26612 2.72552,-6.54124 2.72552,-18.89692 v -51.69398 h 16.3531 v 96.48332 z"
           style="font-family:'Phetsarath OT';-inkscape-font-specification:'Phetsarath OT';stroke:none"
           id="path3293" />
        <path
           d="m 801.45779,-205.4619 q -9.08506,7.7223 -17.53417,10.90207 -8.35825,3.17977 -17.98841,3.17977 -15.89885,0 -24.43881,-7.7223 -8.53995,-7.81315 -8.53995,-19.89627 0,-7.08635 3.17977,-12.90079 3.27062,-5.90529 8.4491,-9.44846 5.26933,-3.54317 11.81058,-5.36018 4.81508,-1.27191 14.53609,-2.45297 19.80543,-2.36211 29.16304,-5.63273 0.0909,-3.36148 0.0909,-4.26998 0,-9.99357 -4.63338,-14.08184 -6.26869,-5.54189 -18.62437,-5.54189 -11.53803,0 -17.07991,4.08828 -5.45104,3.99742 -8.0857,14.26354 l -15.98971,-2.18041 q 2.18042,-10.26612 7.1772,-16.53481 4.99678,-6.35954 14.44524,-9.72101 9.44846,-3.45233 21.89499,-3.45233 12.35568,0 20.07798,2.90722 7.7223,2.90722 11.35633,7.3589 3.63402,4.36083 5.08763,11.08377 0.81765,4.17913 0.81765,15.0812 v 21.80414 q 0,22.8035 0.99936,28.89049 1.09021,5.99613 4.17913,11.53802 h -17.07991 q -2.54382,-5.08763 -3.27062,-11.90143 z m -1.36276,-36.52193 q -8.90336,3.63402 -26.71007,6.17784 -10.08442,1.45361 -14.26355,3.27062 -4.17912,1.81701 -6.45039,5.36018 -2.27126,3.45233 -2.27126,7.7223 0,6.54124 4.90593,10.90207 4.99678,4.36083 14.53609,4.36083 9.44846,0 16.80736,-4.08828 7.3589,-4.17912 10.81122,-11.35632 2.63467,-5.54188 2.63467,-16.3531 z"
           style="font-family:'Phetsarath OT';-inkscape-font-specification:'Phetsarath OT';stroke:none"
           id="path3295" />
        <path
           d="m 830.81346,-193.56047 v -96.48332 h 14.71779 v 13.71844 q 10.62952,-15.89886 30.7075,-15.89886 8.72165,0 15.9897,3.17978 7.3589,3.08892 10.99292,8.17655 3.63402,5.08763 5.08763,12.08313 0.90851,4.54252 0.90851,15.89885 v 59.32543 H 892.8644 v -58.68948 q 0,-9.99356 -1.90786,-14.89949 -1.90786,-4.99679 -6.81379,-7.904 -4.81508,-2.99807 -11.35632,-2.99807 -10.44782,0 -18.07927,6.63209 -7.5406,6.63209 -7.5406,25.16561 v 52.69334 z"
           style="font-family:'Phetsarath OT';-inkscape-font-specification:'Phetsarath OT';stroke:none"
           id="path3297" />
        <path
           d="m 958.83283,-208.18741 2.36211,14.44524 q -6.90464,1.45361 -12.35568,1.45361 -8.90335,0 -13.80928,-2.81637 -4.90594,-2.81637 -6.90465,-7.3589 -1.99871,-4.63338 -1.99871,-19.35117 v -55.50971 h -11.99228 v -12.71908 h 11.99228 v -23.8937 l 16.26225,-9.81187 v 33.70557 h 16.44396 v 12.71908 h -16.44396 v 56.41821 q 0,6.9955 0.81766,8.99421 0.9085,1.99871 2.81637,3.17977 1.99871,1.18106 5.63273,1.18106 2.72552,0 7.1772,-0.63595 z"
           style="font-family:'Phetsarath OT';-inkscape-font-specification:'Phetsarath OT';stroke:none"
           id="path3299" />
        <path
           d="m 957.57186,-241.80213 q 0,-26.80092 14.8995,-39.70171 12.44653,-10.72037 30.34414,-10.72037 19.8962,0 32.5245,13.08249 12.6282,12.99163 12.6282,35.97683 0,18.62437 -5.6327,29.34474 -5.5419,10.62952 -16.2623,16.53481 -10.6295,5.90528 -23.2577,5.90528 -20.25973,0 -32.79711,-12.99163 -12.44653,-12.99163 -12.44653,-37.43044 z m 16.80736,0 q 0,18.53352 8.0857,27.80028 8.08571,9.17591 20.35058,9.17591 12.1739,0 20.2596,-9.26676 8.0857,-9.26676 8.0857,-28.25453 0,-17.89757 -8.1765,-27.07348 -8.0857,-9.26676 -20.1688,-9.26676 -12.26487,0 -20.35058,9.17591 -8.0857,9.17591 -8.0857,27.70943 z"
           style="font-family:'Phetsarath OT';-inkscape-font-specification:'Phetsarath OT';stroke:none"
           id="path3301" />
      </g>
      <path
         d="m 1139.0814,158.63322 v 97.39372 h 14.3253 l 0.625,-10.69503 59.6104,7.57989 -1.1816,-82.65297 -10.9558,65.22809 -42.3804,-5.90131 c 0,0 -4.126,-15.06626 -4.126,-21.78675 v -49.16564 z"
         id="path5663"
         style="font-size:144px;line-height:0;font-family:'Phetsarath OT';-inkscape-font-specification:'Phetsarath OT';text-align:center;text-anchor:middle;fill:#f2f2f2;fill-opacity:1;stroke-width:5.7901"
         inkscape:label="r"
         sodipodi:nodetypes="ccccccccscc" />
      <g
         aria-label="construcciones"
         transform="matrix(1.0213068,0,0,-1.0213068,98.054112,-102.19712)"
         id="text910-3"
         style="font-size:46.3631px;line-height:1.25;font-family:'MADE Outer Sans';-inkscape-font-specification:'MADE Outer Sans';text-align:center;text-anchor:middle;display:inline;fill:#ff5e13;fill-opacity:1;stroke-width:1.15768;stroke-dasharray:none"
         inkscape:label="construcciones">
        <path
           d="m 590.67482,-236.15793 v 5.30119 q -2.40403,-1.3253 -4.83887,-1.97253 -2.40403,-0.67806 -4.8697,-0.67806 -5.51694,0 -8.5682,3.51358 -3.05127,3.48276 -3.05127,9.80103 0,6.31827 3.05127,9.83185 3.05126,3.48276 8.5682,3.48276 2.46567,0 4.8697,-0.64724 2.43484,-0.67805 4.83887,-2.00336 v 5.23955 q -2.3732,1.10955 -4.93134,1.66433 -2.52731,0.55478 -5.39365,0.55478 -7.79768,0 -12.38999,-4.90052 -4.5923,-4.90052 -4.5923,-13.22215 0,-8.44492 4.62312,-13.28379 4.65395,-4.83887 12.72902,-4.83887 2.61977,0 5.11627,0.55476 2.49648,0.52396 4.83887,1.60269 z"
           id="path482"
           inkscape:label="c"
           style="fill:#ff5e13;fill-opacity:1;stroke-width:1.15768;stroke-dasharray:none" />
        <path
           d="m 613.91375,-233.50733 q -4.56149,0 -7.21209,3.57521 -2.65059,3.5444 -2.65059,9.7394 0,6.19499 2.61977,9.77022 2.6506,3.54439 7.24291,3.54439 4.53067,0 7.18125,-3.57522 2.6506,-3.57522 2.6506,-9.73939 0,-6.13335 -2.6506,-9.70858 -2.65058,-3.60603 -7.18125,-3.60603 z m 0,-4.80805 q 7.397,0 11.61946,4.80805 4.22246,4.80805 4.22246,13.31461 0,8.47574 -4.22246,13.31461 -4.22246,4.80806 -11.61946,4.80806 -7.42784,0 -11.6503,-4.80806 -4.19162,-4.83887 -4.19162,-13.31461 0,-8.50656 4.19162,-13.31461 4.22246,-4.80805 11.6503,-4.80805 z"
           id="path484"
           inkscape:label="o"
           style="fill:#ff5e13;fill-opacity:1;stroke-width:1.15768;stroke-dasharray:none" />
        <path
           d="m 667.85025,-223.79877 v 20.83491 h -5.67103 v -20.64998 q 0,-4.90052 -1.9109,-7.33536 -1.91089,-2.43485 -5.73268,-2.43485 -4.59231,0 -7.24291,2.92798 -2.65059,2.92799 -2.65059,7.98261 v 19.5096 h -5.70186 v -34.51936 h 5.70186 v 5.36283 q 2.03418,-3.11291 4.77724,-4.65395 2.77387,-1.54104 6.37991,-1.54104 5.94843,0 8.9997,3.69849 3.05126,3.66769 3.05126,10.81812 z"
           id="path486"
           inkscape:label="n"
           style="fill:#ff5e13;fill-opacity:1;stroke-width:1.15768;stroke-dasharray:none" />
        <path
           d="m 701.1676,-236.46613 v 5.36282 q -2.40403,-1.23283 -4.99298,-1.84924 -2.58896,-0.61643 -5.36284,-0.61643 -4.22244,0 -6.34909,1.29448 -2.09581,1.29449 -2.09581,3.88344 0,1.97252 1.51021,3.1129 1.51022,1.10954 6.07171,2.12664 l 1.94172,0.43149 q 6.04088,1.29448 8.5682,3.66768 2.55812,2.34239 2.55812,6.56484 0,4.80806 -3.82178,7.61276 -3.79096,2.8047 -10.44827,2.8047 -2.77388,0 -5.79433,-0.55478 -2.98961,-0.52395 -6.31826,-1.60269 v -5.85595 q 3.14373,1.63349 6.19498,2.46565 3.05128,0.80135 6.04089,0.80135 4.00671,0 6.16418,-1.35611 2.15746,-1.38694 2.15746,-3.88343 0,-2.31157 -1.57186,-3.54441 -1.54104,-1.23283 -6.81141,-2.3732 l -1.97254,-0.46231 q -5.27037,-1.10955 -7.61275,-3.3903 -2.34239,-2.31156 -2.34239,-6.31828 0,-4.86969 3.45193,-7.52029 3.45195,-2.65058 9.80104,-2.65058 3.14372,0 5.9176,0.46231 2.77388,0.46231 5.11627,1.38694 z"
           id="path488"
           inkscape:label="s"
           style="fill:#ff5e13;fill-opacity:1;stroke-width:1.15768;stroke-dasharray:none" />
        <path
           d="m 717.65675,-247.28426 v 9.80104 h 11.68111 v 4.40739 h -11.68111 v 18.73907 q 0,4.22246 1.14038,5.42448 1.17119,1.20201 4.71558,1.20201 h 5.82515 v 4.74641 h -5.82515 q -6.56484,0 -9.06133,-2.43484 -2.49648,-2.46567 -2.49648,-8.93806 v -18.73907 h -4.16082 v -4.40739 h 4.16082 v -9.80104 z"
           id="path490"
           inkscape:label="t"
           style="fill:#ff5e13;fill-opacity:1;stroke-width:1.15768;stroke-dasharray:none" />
        <path
           d="m 756.79924,-232.18204 q -0.95544,-0.55476 -2.09582,-0.80134 -1.10954,-0.27738 -2.46567,-0.27738 -4.80805,0 -7.397,3.14373 -2.55813,3.1129 -2.55813,8.96886 v 18.18431 h -5.70186 v -34.51936 h 5.70186 v 5.36283 q 1.7876,-3.14373 4.65395,-4.65395 2.86633,-1.54104 6.96551,-1.54104 0.5856,0 1.29447,0.0924 0.70888,0.0617 1.57187,0.21575 z"
           id="path492"
           inkscape:label="r"
           style="fill:#ff5e13;fill-opacity:1;stroke-width:1.15768;stroke-dasharray:none" />
        <path
           d="m 762.16209,-216.58668 v -20.89654 h 5.67103 v 20.68079 q 0,4.90052 1.9109,7.36619 1.91089,2.43485 5.73268,2.43485 4.59231,0 7.24291,-2.92798 2.6814,-2.92798 2.6814,-7.9826 v -19.57125 h 5.67105 v 34.51936 h -5.67105 v -5.30119 q -2.06499,3.14373 -4.80805,4.68477 -2.71224,1.51023 -6.31828,1.51023 -5.94842,0 -9.03051,-3.69851 -3.08208,-3.6985 -3.08208,-10.81812 z m 14.27006,-21.7287 z"
           id="path494"
           inkscape:label="u"
           style="fill:#ff5e13;fill-opacity:1;stroke-width:1.15768;stroke-dasharray:none" />
        <path
           d="m 827.59476,-236.15793 v 5.30119 q -2.40403,-1.3253 -4.83888,-1.97253 -2.40402,-0.67806 -4.86969,-0.67806 -5.51694,0 -8.5682,3.51358 -3.05127,3.48276 -3.05127,9.80103 0,6.31827 3.05127,9.83185 3.05126,3.48276 8.5682,3.48276 2.46567,0 4.86969,-0.64724 2.43485,-0.67805 4.83888,-2.00336 v 5.23955 q -2.3732,1.10955 -4.93134,1.66433 -2.52731,0.55478 -5.39365,0.55478 -7.79768,0 -12.38999,-4.90052 -4.5923,-4.90052 -4.5923,-13.22215 0,-8.44492 4.62312,-13.28379 4.65396,-4.83887 12.72902,-4.83887 2.61977,0 5.11626,0.55476 2.4965,0.52396 4.83888,1.60269 z"
           id="path496"
           inkscape:label="c"
           style="fill:#ff5e13;fill-opacity:1;stroke-width:1.15768;stroke-dasharray:none" />
        <path
           d="m 862.29905,-236.15793 v 5.30119 q -2.40403,-1.3253 -4.83889,-1.97253 -2.40402,-0.67806 -4.86969,-0.67806 -5.51693,0 -8.56819,3.51358 -3.05127,3.48276 -3.05127,9.80103 0,6.31827 3.05127,9.83185 3.05126,3.48276 8.56819,3.48276 2.46567,0 4.86969,-0.64724 2.43486,-0.67805 4.83889,-2.00336 v 5.23955 q -2.37322,1.10955 -4.93135,1.66433 -2.5273,0.55478 -5.39364,0.55478 -7.79768,0 -12.38999,-4.90052 -4.59231,-4.90052 -4.59231,-13.22215 0,-8.44492 4.62313,-13.28379 4.65395,-4.83887 12.72902,-4.83887 2.61977,0 5.11625,0.55476 2.49649,0.52396 4.83889,1.60269 z"
           id="path498"
           inkscape:label="c"
           style="fill:#ff5e13;fill-opacity:1;stroke-width:1.15768;stroke-dasharray:none" />
        <path
           d="m 872.16172,-237.48322 h 5.67103 v 34.51936 h -5.67103 z m 0,-13.4379 h 5.67103 v 7.18127 h -5.67103 z"
           id="path500"
           inkscape:label="i"
           style="fill:#ff5e13;fill-opacity:1;stroke-width:1.15768;stroke-dasharray:none" />
        <path
           d="m 903.07506,-233.50733 q -4.56149,0 -7.21209,3.57521 -2.6506,3.5444 -2.6506,9.7394 0,6.19499 2.61978,9.77022 2.65059,3.54439 7.24291,3.54439 4.53066,0 7.18125,-3.57522 2.65059,-3.57522 2.65059,-9.73939 0,-6.13335 -2.65059,-9.70858 -2.65059,-3.60603 -7.18125,-3.60603 z m 0,-4.80805 q 7.397,0 11.61946,4.80805 4.22246,4.80805 4.22246,13.31461 0,8.47574 -4.22246,13.31461 -4.22246,4.80806 -11.61946,4.80806 -7.42784,0 -11.6503,-4.80806 -4.19164,-4.83887 -4.19164,-13.31461 0,-8.50656 4.19164,-13.31461 4.22246,-4.80805 11.6503,-4.80805 z"
           id="path502"
           inkscape:label="o"
           style="fill:#ff5e13;fill-opacity:1;stroke-width:1.15768;stroke-dasharray:none" />
        <path
           d="m 957.01154,-223.79877 v 20.83491 h -5.67105 v -20.64998 q 0,-4.90052 -1.91089,-7.33536 -1.91089,-2.43485 -5.73268,-2.43485 -4.5923,0 -7.24289,2.92798 -2.6506,2.92799 -2.6506,7.98261 v 19.5096 h -5.70185 v -34.51936 h 5.70185 v 5.36283 q 2.03417,-3.11291 4.77724,-4.65395 2.77388,-1.54104 6.37991,-1.54104 5.94843,0 8.99969,3.69849 3.05127,3.66769 3.05127,10.81812 z"
           id="path504"
           inkscape:label="n"
           style="fill:#ff5e13;fill-opacity:1;stroke-width:1.15768;stroke-dasharray:none" />
        <path
           d="m 997.84918,-221.6413 v 2.77388 h -26.07444 q 0.36985,5.85595 3.51358,8.93805 3.17454,3.05126 8.81476,3.05126 3.26701,0 6.31828,-0.80134 3.08208,-0.80135 6.10253,-2.40402 v 5.36282 q -3.05127,1.29447 -6.25663,1.97254 -3.20538,0.67806 -6.50321,0.67806 -8.25999,0 -13.09886,-4.80806 -4.80805,-4.80805 -4.80805,-13.0064 0,-8.47574 4.56149,-13.4379 4.5923,-4.99297 12.35916,-4.99297 6.96551,0 11.00304,4.49984 4.06835,4.46902 4.06835,12.17424 z m -5.67103,-1.66433 q -0.0617,-4.65395 -2.61977,-7.42783 -2.52732,-2.77387 -6.71896,-2.77387 -4.74641,0 -7.61274,2.68142 -2.83553,2.6814 -3.26701,7.5511 z"
           id="path506"
           inkscape:label="e"
           style="fill:#ff5e13;fill-opacity:1;stroke-width:1.15768;stroke-dasharray:none" />
        <path
           d="m 1029.1632,-236.46613 v 5.36282 q -2.4041,-1.23283 -4.993,-1.84924 -2.589,-0.61643 -5.3628,-0.61643 -4.2225,0 -6.3491,1.29448 -2.0959,1.29449 -2.0959,3.88344 0,1.97252 1.5103,3.1129 1.5102,1.10954 6.0717,2.12664 l 1.9417,0.43149 q 6.0409,1.29448 8.5682,3.66768 2.5581,2.34239 2.5581,6.56484 0,4.80806 -3.8218,7.61276 -3.7909,2.8047 -10.4482,2.8047 -2.7739,0 -5.7943,-0.55478 -2.9897,-0.52395 -6.3183,-1.60269 v -5.85595 q 3.1437,1.63349 6.195,2.46565 3.0512,0.80135 6.0409,0.80135 4.0067,0 6.1641,-1.35611 2.1575,-1.38694 2.1575,-3.88343 0,-2.31157 -1.5719,-3.54441 -1.541,-1.23283 -6.8114,-2.3732 l -1.9725,-0.46231 q -5.2704,-1.10955 -7.6128,-3.3903 -2.3424,-2.31156 -2.3424,-6.31828 0,-4.86969 3.452,-7.52029 3.4519,-2.65058 9.801,-2.65058 3.1437,0 5.9176,0.46231 2.7739,0.46231 5.1163,1.38694 z"
           id="path508"
           inkscape:label="s"
           style="fill:#ff5e13;fill-opacity:1;stroke-width:1.15768;stroke-dasharray:none" />
      </g>
    </g>
    <text
       xml:space="preserve"
       style="font-size:1929.47px;font-family:'Streetbomber personal use';-inkscape-font-specification:'Streetbomber personal use';text-align:center;text-anchor:middle;opacity:0.503058;fill:#000000;fill-rule:evenodd;stroke:#000000;stroke-width:9.64067;stroke-linejoin:bevel;paint-order:markers stroke fill"
       x="787.07013"
       y="-209.27287"
       id="text4865"
       transform="scale(1,-1)"><tspan
         sodipodi:role="line"
         id="tspan4863"
         style="stroke-width:9.64066"
         x="787.07013"
         y="-209.27287" /></text>
  </g>
</svg>
